<svg width="248" height="64" viewBox="0 0 248 64" fill="none" xmlns="http://www.w3.org/2000/svg">
<g clip-path="url(#clip0_409_14)">
<path d="M37.3333 2.66666V29.3333M37.3333 56V29.3333M56.1895 10.4771L18.4771 48.1895M37.3333 29.3333L10.6666 29.3333M56.1895 48.1895L18.4771 10.4771" stroke="#231F20" stroke-width="6" stroke-linecap="round" stroke-linejoin="round"/>
</g>
<path d="M74.395 13.835V25.055H87.595V30.17H74.395V41.885H89.245V47H68.125V8.72H89.245V13.835H74.395ZM108.683 41.39L117.263 16.695H123.918L112.368 47H104.888L93.3928 16.695H100.103L108.683 41.39ZM141.802 47.495C138.942 47.495 136.357 46.8533 134.047 45.57C131.737 44.25 129.922 42.4167 128.602 40.07C127.282 37.6867 126.622 34.9367 126.622 31.82C126.622 28.74 127.301 26.0083 128.657 23.625C130.014 21.2417 131.866 19.4083 134.212 18.125C136.559 16.8417 139.181 16.2 142.077 16.2C144.974 16.2 147.596 16.8417 149.942 18.125C152.289 19.4083 154.141 21.2417 155.497 23.625C156.854 26.0083 157.532 28.74 157.532 31.82C157.532 34.9 156.836 37.6317 155.442 40.015C154.049 42.3983 152.142 44.25 149.722 45.57C147.339 46.8533 144.699 47.495 141.802 47.495ZM141.802 42.05C143.416 42.05 144.919 41.665 146.312 40.895C147.742 40.125 148.897 38.97 149.777 37.43C150.657 35.89 151.097 34.02 151.097 31.82C151.097 29.62 150.676 27.7683 149.832 26.265C148.989 24.725 147.871 23.57 146.477 22.8C145.084 22.03 143.581 21.645 141.967 21.645C140.354 21.645 138.851 22.03 137.457 22.8C136.101 23.57 135.019 24.725 134.212 26.265C133.406 27.7683 133.002 29.62 133.002 31.82C133.002 35.0833 133.827 37.6133 135.477 39.41C137.164 41.17 139.272 42.05 141.802 42.05ZM170 6.3V47H163.73V6.3H170ZM205.677 16.695V47H199.407V43.425C198.417 44.6717 197.116 45.6617 195.502 46.395C193.926 47.0917 192.239 47.44 190.442 47.44C188.059 47.44 185.914 46.945 184.007 45.955C182.137 44.965 180.652 43.4983 179.552 41.555C178.489 39.6117 177.957 37.265 177.957 34.515V16.695H184.172V33.58C184.172 36.2933 184.851 38.3833 186.207 39.85C187.564 41.28 189.416 41.995 191.762 41.995C194.109 41.995 195.961 41.28 197.317 39.85C198.711 38.3833 199.407 36.2933 199.407 33.58V16.695H205.677ZM211.86 31.71C211.86 28.6667 212.484 25.9717 213.73 23.625C215.014 21.2783 216.737 19.4633 218.9 18.18C221.1 16.86 223.52 16.2 226.16 16.2C228.544 16.2 230.615 16.6767 232.375 17.63C234.172 18.5467 235.602 19.7017 236.665 21.095V16.695H242.99V47H236.665V42.49C235.602 43.92 234.154 45.1117 232.32 46.065C230.487 47.0183 228.397 47.495 226.05 47.495C223.447 47.495 221.064 46.835 218.9 45.515C216.737 44.1583 215.014 42.2883 213.73 39.905C212.484 37.485 211.86 34.7533 211.86 31.71ZM236.665 31.82C236.665 29.73 236.225 27.915 235.345 26.375C234.502 24.835 233.384 23.6617 231.99 22.855C230.597 22.0483 229.094 21.645 227.48 21.645C225.867 21.645 224.364 22.0483 222.97 22.855C221.577 23.625 220.44 24.78 219.56 26.32C218.717 27.8233 218.295 29.62 218.295 31.71C218.295 33.8 218.717 35.6333 219.56 37.21C220.44 38.7867 221.577 39.9967 222.97 40.84C224.4 41.6467 225.904 42.05 227.48 42.05C229.094 42.05 230.597 41.6467 231.99 40.84C233.384 40.0333 234.502 38.86 235.345 37.32C236.225 35.7433 236.665 33.91 236.665 31.82Z" fill="#231F20"/>
<defs>
<clipPath id="clip0_409_14">
<rect width="64" height="64" fill="white"/>
</clipPath>
</defs>
</svg>
